<svg width="1417" height="132" viewBox="0 0 1417 132" fill="none" xmlns="http://www.w3.org/2000/svg">
<path d="M1416.8 0.0299072V102.003H1402V0.0299072H1416.8Z" fill="#162C22"/>
<path d="M1366.94 40.8385V30.7489H1381.2V103.26H1366.94V93.3047C1360.39 101.107 1352.14 105.009 1342.19 105.009C1331.69 105.009 1323.04 101.332 1316.22 93.9773C1309.41 86.6231 1306 77.4751 1306 66.5335C1306 55.6815 1309.41 46.7129 1316.22 39.6278C1323.04 32.5426 1331.69 29 1342.19 29C1352.14 29 1360.39 32.9462 1366.94 40.8385ZM1344.21 91.4213C1350.93 91.4213 1356.54 89.0446 1361.02 84.2913C1365.42 79.6276 1367.61 73.8429 1367.61 66.9371C1367.61 60.121 1365.42 54.3811 1361.02 49.7174C1356.54 44.9641 1350.93 42.5874 1344.21 42.5874C1337.3 42.5874 1331.69 44.9641 1327.39 49.7174C1323.09 54.3811 1320.93 60.1658 1320.93 67.0716C1320.93 73.9774 1323.09 79.7621 1327.39 84.4258C1331.69 89.0894 1337.3 91.4213 1344.21 91.4213Z" fill="#162C22"/>
<path d="M800.09 64.3467C800.09 66.6785 799.911 69.0551 799.552 71.4767H742.915C743.992 77.3062 746.548 81.9251 750.583 85.3331C754.709 88.7412 760.18 90.4452 766.996 90.4452C771.122 90.4452 775.426 89.7277 779.911 88.2927C784.485 86.8578 788.386 84.9744 791.615 82.6425L797.803 93.5394C788.745 100.266 778.296 103.629 766.458 103.629C753.723 103.629 744.036 99.907 737.4 92.4631C730.853 85.0192 727.579 76.0506 727.579 65.5574C727.579 54.6158 730.987 45.6023 737.803 38.5172C744.709 31.3423 753.633 27.7549 764.574 27.7549C775.068 27.7549 783.588 31.0284 790.135 37.5755C796.772 44.2122 800.09 53.1359 800.09 64.3467ZM764.574 40.5351C759.014 40.5351 754.261 42.284 750.314 45.7817C746.458 49.1898 743.992 53.7189 742.915 59.3691H785.157C784.53 53.7189 782.287 49.1898 778.431 45.7817C774.664 42.284 770.045 40.5351 764.574 40.5351Z" fill="#162C22"/>
<path d="M995.511 64.3467C995.511 66.6785 995.332 69.0551 994.973 71.4767H938.336C939.412 77.3062 941.969 81.9251 946.004 85.3331C950.13 88.7412 955.601 90.4452 962.417 90.4452C966.542 90.4452 970.847 89.7277 975.332 88.2927C979.906 86.8578 983.807 84.9744 987.036 82.6425L993.224 93.5394C984.166 100.266 973.717 103.629 961.879 103.629C949.143 103.629 939.457 99.907 932.821 92.4631C926.274 85.0192 923 76.0506 923 65.5574C923 54.6158 926.408 45.6023 933.224 38.5172C940.13 31.3423 949.054 27.7549 959.995 27.7549C970.489 27.7549 979.009 31.0284 985.556 37.5755C992.193 44.2122 995.511 53.1359 995.511 64.3467ZM959.995 40.5351C954.435 40.5351 949.682 42.284 945.735 45.7817C941.879 49.1898 939.412 53.7189 938.336 59.3691H980.578C979.95 53.7189 977.708 49.1898 973.852 45.7817C970.085 42.284 965.466 40.5351 959.995 40.5351Z" fill="#162C22"/>
<path d="M1265.55 29.444C1274.26 29.444 1281.31 32.0947 1286.71 37.396C1292.11 42.6973 1294.8 51.0753 1294.8 62.53V103H1279.33V63.808C1279.33 49.7027 1273.55 42.65 1262 42.65C1255.94 42.65 1251.16 44.78 1247.66 49.04C1244.25 53.2053 1242.55 58.98 1242.55 66.364V103H1227.21V30.296H1240.56L1242.26 39.81C1247.76 32.8993 1255.52 29.444 1265.55 29.444Z" fill="#162C22"/>
<path d="M1207.07 17.516C1205.27 19.22 1203.04 20.072 1200.39 20.072C1197.74 20.072 1195.52 19.22 1193.72 17.516C1191.92 15.7173 1191.02 13.4927 1191.02 10.842C1191.02 8.19133 1191.92 6.014 1193.72 4.31C1195.52 2.51133 1197.74 1.612 1200.39 1.612C1203.04 1.612 1205.27 2.51133 1207.07 4.31C1208.87 6.014 1209.77 8.19133 1209.77 10.842C1209.77 13.4927 1208.87 15.7173 1207.07 17.516ZM1192.58 103V30.296H1207.92V103H1192.58Z" fill="#162C22"/>
<path d="M1147.16 29.444C1155.3 29.444 1161.88 32 1166.89 37.112C1171.91 42.224 1174.42 50.2233 1174.42 61.11V103H1159.08V62.104C1159.08 49.1347 1154.02 42.65 1143.89 42.65C1138.59 42.65 1134.38 44.5433 1131.25 48.33C1128.22 52.022 1126.71 57.134 1126.71 63.666V103H1111.23V62.104C1111.23 49.1347 1106.12 42.65 1095.89 42.65C1090.69 42.65 1086.52 44.5907 1083.4 48.472C1080.37 52.3533 1078.85 57.56 1078.85 64.092V103H1063.52V30.296H1076.87L1078.57 39.81C1083.78 32.994 1090.88 29.5387 1099.87 29.444C1110.66 29.444 1118.14 33.846 1122.31 42.65C1127.51 33.846 1135.8 29.444 1147.16 29.444Z" fill="#162C22"/>
<path d="M1046.39 30.296H1049.8V44.638H1042.98C1036.64 44.638 1032.05 46.7207 1029.21 50.886C1026.37 54.9567 1024.95 60.1633 1024.95 66.506V103H1009.61V30.296H1023.25L1024.95 41.23C1029.4 33.9407 1036.55 30.296 1046.39 30.296Z" fill="#162C22"/>
<path d="M844.84 18.084V3.60001H922.514V18.084H891.842V103H875.512V18.084H844.84Z" fill="#162C22"/>
<path d="M800.09 64.3467C800.09 66.6785 799.911 69.0552 799.552 71.4767H742.915C743.991 77.3062 746.547 81.9251 750.583 85.3331C754.709 88.7412 760.18 90.4452 766.996 90.4452C771.121 90.4452 775.426 89.7277 779.911 88.2927C784.484 86.8578 788.386 84.9744 791.615 82.6425L797.803 93.5394C788.745 100.266 778.296 103.629 766.458 103.629C753.722 103.629 744.036 99.907 737.4 92.4631C730.852 85.0192 727.579 76.0506 727.579 65.5574C727.579 54.6158 730.987 45.6024 737.803 38.5172C744.709 31.3423 753.633 27.7549 764.574 27.7549C775.068 27.7549 783.588 31.0284 790.135 37.5755C796.771 44.2122 800.09 53.136 800.09 64.3467ZM764.574 40.5351C759.014 40.5351 754.26 42.284 750.314 45.7817C746.458 49.1898 743.991 53.7189 742.915 59.3691H785.157C784.529 53.7189 782.287 49.1898 778.431 45.7817C774.664 42.284 770.045 40.5351 764.574 40.5351Z" fill="#162C22"/>
<path d="M709.957 0.0299083V102.003H695.158V0.0299083H709.957Z" fill="#162C22"/>
<path d="M642.506 103.749C632.82 103.749 625.107 100.924 619.367 95.274C613.627 89.6238 610.757 81.9557 610.757 72.2697V29.4896H625.555V72.1351C625.555 77.606 627.035 81.9557 629.995 85.1844C633.044 88.4131 637.214 90.0274 642.506 90.0274C647.887 90.0274 652.057 88.4579 655.017 85.3189C657.977 82.1799 659.456 77.7853 659.456 72.1351V29.4896H674.389V72.2697C674.389 82.1351 671.564 89.8481 665.914 95.4086C660.264 100.969 652.461 103.749 642.506 103.749Z" fill="#162C22"/>
<path d="M567.572 103.748C561.833 103.748 556.496 102.448 551.563 99.8469C546.631 97.2461 542.685 93.4793 539.725 88.5465L549.277 79.9367C551.429 83.4345 554.164 86.1699 557.483 88.143C560.891 90.0264 564.344 90.9681 567.841 90.9681C571.339 90.9681 574.209 90.1161 576.451 88.412C578.693 86.6183 579.814 84.4659 579.814 81.9547C579.814 78.3672 577.752 75.587 573.626 73.6139C572.55 72.9861 569.635 71.7753 564.882 69.9816C560.039 67.9189 556.989 66.5287 555.734 65.8112C548.021 61.7754 544.164 55.8113 544.164 47.9189C544.164 41.91 546.407 36.9324 550.891 32.9863C555.555 29.0401 561.563 27.067 568.918 27.067C579.232 27.067 587.169 30.789 592.729 38.2329L584.119 47.3808C579.815 42.0894 574.523 39.4436 568.245 39.4436C565.285 39.4436 562.909 40.206 561.115 41.7306C559.411 43.2553 558.559 45.1387 558.559 47.3808C558.559 50.9682 560.577 53.614 564.613 55.318L572.012 58.4122C576.765 60.3852 580.173 61.9099 582.236 62.9861C590.487 67.291 594.613 73.3897 594.613 81.282C594.613 87.6497 592.101 92.986 587.079 97.2909C582.057 101.596 575.554 103.748 567.572 103.748Z" fill="#162C22"/>
<path d="M492.796 27.7549C503.11 27.7549 511.675 31.432 518.491 38.7862C525.397 46.2301 528.85 55.2436 528.85 65.8265C528.85 76.3197 525.397 85.2883 518.491 92.7322C511.675 100.086 503.066 103.764 492.662 103.764C482.438 103.764 474.187 99.8174 467.909 91.925V131.88H453.111V29.5038H467.909V39.997C474.456 31.8356 482.752 27.7549 492.796 27.7549ZM513.917 65.692C513.917 58.8758 511.765 53.136 507.46 48.4723C503.155 43.719 497.55 41.3423 490.644 41.3423C483.738 41.3423 478.133 43.719 473.828 48.4723C469.613 53.2256 467.505 58.9655 467.505 65.692C467.505 72.5978 469.613 78.4273 473.828 83.1807C478.133 87.8443 483.738 90.1761 490.644 90.1761C497.55 90.1761 503.155 87.8443 507.46 83.1807C511.765 78.517 513.917 72.6874 513.917 65.692Z" fill="#162C22"/>
<path d="M417.059 39.5934V29.5038H431.319V102.015H417.059V92.0595C410.512 99.8622 402.261 103.764 392.306 103.764C381.813 103.764 373.158 100.086 366.342 92.7322C359.526 85.378 356.118 76.23 356.118 65.2884C356.118 54.4364 359.526 45.4678 366.342 38.3827C373.158 31.2975 381.813 27.7549 392.306 27.7549C402.261 27.7549 410.512 31.7011 417.059 39.5934ZM394.324 90.1762C401.05 90.1762 406.656 87.7995 411.14 83.0461C415.535 78.3825 417.732 72.5978 417.732 65.692C417.732 58.8758 415.535 53.136 411.14 48.4723C406.656 43.719 401.05 41.3423 394.324 41.3423C387.418 41.3423 381.813 43.719 377.508 48.4723C373.203 53.136 371.051 58.9207 371.051 65.8265C371.051 72.7323 373.203 78.517 377.508 83.1807C381.813 87.8443 387.418 90.1762 394.324 90.1762Z" fill="#162C22"/>
<path d="M354.423 102.004H335.32L302.764 59.7617L289.58 75.5015V102.004H274.109V2.58707H289.58V54.3806L332.629 2.58707H351.194L312.854 48.8649L354.423 102.004Z" fill="#162C22"/>
<path d="M161.995 13.6749H54.6997C32.0423 13.6749 13.6749 32.0423 13.6749 54.6997C13.6749 77.3571 32.0423 95.7245 54.6997 95.7245C54.6997 95.7245 160.768 95.7245 161.995 95.7245V109.399H54.6997C24.4899 109.399 0 84.9095 0 54.6997C0 24.4899 24.4899 0 54.6997 0H161.995C192.205 0 216.695 24.4899 216.695 54.6997C216.695 56.4305 216.614 58.1426 216.457 59.8324C216.164 62.9805 213.402 65.2189 210.24 65.2189C205.905 65.2189 202.756 61.0839 202.969 56.7539C203.003 56.0734 203.02 55.3885 203.02 54.6997C203.02 32.0423 184.653 13.6749 161.995 13.6749Z" fill="#162C22"/>
<path d="M0 54.0338C0 24.1917 24.1917 0 54.0337 0H74.8159C104.658 0 128.85 24.1917 128.85 54.0338C128.85 83.8758 104.658 108.068 74.816 108.068H54.0338C24.1918 108.068 0 83.8758 0 54.0338Z" fill="#162C22"/>
<path fill-rule="evenodd" clip-rule="evenodd" d="M201.968 109.396H147.268V95.7215H201.968V109.396Z" fill="#162C22"/>
<path d="M208.85 110.825L179.841 81.8163L188.023 73.6343L217.032 102.643L208.85 110.825Z" fill="#162C22"/>
<path d="M217.015 102.87L188.006 131.878L179.824 123.696L208.833 94.6876L217.015 102.87Z" fill="#162C22"/>
</svg>

