<svg width="132" height="132" viewBox="0 0 132 132" fill="none" xmlns="http://www.w3.org/2000/svg">
<rect width="132" height="132" fill="#20E080"/>
<g transform="translate(16, 12) scale(0.75)">
<path d="M161.995 13.6749H54.6997C32.0423 13.6749 13.6749 32.0423 13.6749 54.6997C13.6749 77.3571 32.0423 95.7245 54.6997 95.7245C54.6997 95.7245 160.768 95.7245 161.995 95.7245V109.399H54.6997C24.4899 109.399 0 84.9095 0 54.6997C0 24.4899 24.4899 0 54.6997 0H161.995C192.205 0 216.695 24.4899 216.695 54.6997C216.695 56.4305 216.614 58.1426 216.457 59.8324C216.164 62.9805 213.402 65.2189 210.24 65.2189C205.905 65.2189 202.756 61.0839 202.969 56.7539C203.003 56.0734 203.02 55.3885 203.02 54.6997C203.02 32.0423 184.653 13.6749 161.995 13.6749Z" fill="#162C22"/>
<path d="M0 54.0338C0 24.1917 24.1917 0 54.0337 0H74.8159C104.658 0 128.85 24.1917 128.85 54.0338C128.85 83.8758 104.658 108.068 74.816 108.068H54.0338C24.1918 108.068 0 83.8758 0 54.0338Z" fill="#162C22" transform="translate(1.575, 12)"/>
<path fill-rule="evenodd" clip-rule="evenodd" d="M201.968 109.396H147.268V95.7215H201.968V109.396Z" fill="#162C22" transform="translate(-73.5, -47.7)"/>
<path d="M208.85 110.825L179.841 81.8163L188.023 73.6343L217.032 102.643L208.85 110.825Z" fill="#162C22" transform="translate(-73.5, -47.7)"/>
<path d="M217.015 102.87L188.006 131.878L179.824 123.696L208.833 94.6876L217.015 102.87Z" fill="#162C22" transform="translate(-73.5, -47.7)"/>
</g>
</svg>
